<svg xmlns="http://www.w3.org/2000/svg" width="26" height="23" viewBox="0 0 26 23">
    <path fill="#FFF" fill-rule="nonzero" d="M25.155 4.34a.408.408 0 0 0-.224-.345L17.122.09a.407.407 0 0 0-.523.142L11.323 8.35 8.606 4.138a.411.411 0 0 0-.16-.143L.638.09a.41.41 0 0 0-.589.363V4.36a.407.407 0 1 0 .813 0V1.112L7.858 4.61v16.443L.862 17.555V6.095a.407.407 0 1 0-.813 0v11.712c0 .154.087.295.225.364l7.808 3.904a.41.41 0 0 0 .589-.364v-7.584l15.896 7.948a.41.41 0 0 0 .589-.364V4.36l-.001-.019zM8.67 13.217V5.74l7.122 11.04-7.122-3.562zm15.671 7.836l-6.832-3.416 5.324-9.17a.407.407 0 0 0-.704-.408l-5.208 8.97-5.116-7.93L17.083.98l7.097 3.548-1.294 2.228a.407.407 0 0 0 .703.409l.753-1.297v15.184z"/>
</svg>
