<svg xmlns="http://www.w3.org/2000/svg" width="34" height="19" viewBox="0 0 34 19">
    <path fill="#FFF" fill-rule="nonzero" d="M33.001 17.14a2.272 2.272 0 0 0-.112-.216c-.576-1.036-1.676-2.309-3.3-3.817l-.034-.035-.017-.017-.017-.017h-.018c-.737-.703-1.203-1.175-1.399-1.417-.357-.46-.437-.927-.242-1.4.138-.356.657-1.11 1.555-2.262.472-.61.846-1.1 1.122-1.468 1.993-2.65 2.857-4.342 2.592-5.079l-.103-.172c-.07-.104-.248-.199-.536-.285-.288-.086-.656-.1-1.105-.043l-4.975.034c-.08-.028-.196-.026-.346.009l-.224.052-.087.043-.069.052a.768.768 0 0 0-.19.181 1.185 1.185 0 0 0-.172.303 28.206 28.206 0 0 1-1.849 3.886A36.798 36.798 0 0 1 22.3 7.33c-.356.524-.656.91-.898 1.157-.242.248-.46.446-.656.596-.196.15-.345.213-.449.19a12.658 12.658 0 0 1-.294-.069 1.149 1.149 0 0 1-.388-.423 1.895 1.895 0 0 1-.2-.674 7.427 7.427 0 0 1-.06-.7c-.005-.195-.003-.472.01-.829.011-.357.016-.598.016-.725 0-.438.009-.913.026-1.425l.043-1.218c.012-.3.018-.616.018-.95 0-.334-.02-.596-.06-.786-.04-.19-.101-.374-.182-.553a.93.93 0 0 0-.354-.415 1.996 1.996 0 0 0-.579-.233c-.61-.138-1.387-.213-2.332-.224-2.142-.023-3.518.115-4.128.414-.242.127-.46.3-.657.519-.207.253-.236.391-.086.414.69.104 1.18.351 1.468.743l.104.207c.08.15.161.415.242.795.08.38.132.8.155 1.26.058.841.058 1.561 0 2.16a25.725 25.725 0 0 1-.164 1.399c-.052.334-.13.605-.233.812a3.425 3.425 0 0 1-.208.38.297.297 0 0 1-.086.086c-.15.057-.305.087-.466.087-.162 0-.357-.081-.588-.242a4.144 4.144 0 0 1-.716-.665c-.248-.283-.527-.677-.838-1.184a20.648 20.648 0 0 1-.968-1.796l-.276-.501a43.091 43.091 0 0 1-.708-1.408c-.3-.616-.564-1.212-.795-1.788a1.139 1.139 0 0 0-.414-.553l-.087-.052A1.182 1.182 0 0 0 6.236.99 1.833 1.833 0 0 0 5.84.876L1.106.911c-.484 0-.812.11-.985.328l-.069.104A.559.559 0 0 0 0 1.619c0 .127.035.282.104.467a57.007 57.007 0 0 0 2.254 4.698c.812 1.509 1.517 2.724 2.116 3.645.599.921 1.209 1.79 1.83 2.608.623.818 1.034 1.342 1.236 1.572.201.23.36.403.475.518l.432.415c.276.276.682.607 1.218.993.535.386 1.128.766 1.779 1.14.65.374 1.408.68 2.272.915a7.855 7.855 0 0 0 2.522.286h1.986c.403-.035.708-.162.916-.38l.068-.087c.047-.069.09-.175.13-.32.04-.143.06-.302.06-.474a5.692 5.692 0 0 1 .112-1.339c.086-.397.185-.696.294-.898.11-.201.234-.371.372-.51.138-.137.236-.221.294-.25.057-.029.103-.048.137-.06.277-.092.602-.003.977.268.374.27.725.604 1.054 1.002.328.397.722.843 1.183 1.338.46.495.864.864 1.209 1.106l.345.207c.23.138.53.265.899.38.368.115.69.144.967.087l4.422-.07c.437 0 .778-.072 1.019-.216.242-.143.386-.302.432-.475.046-.172.049-.368.009-.587A2.168 2.168 0 0 0 33 17.14z"/>
</svg>
