<svg xmlns="http://www.w3.org/2000/svg" width="25" height="25" viewBox="0 0 25 25">
    <path fill="#FFF" fill-rule="nonzero" d="M24.275 1.149A2.134 2.134 0 0 0 22.561.32c-.444 0-.903.124-1.366.367L1.478 11.025C.077 11.761-.02 12.87.003 13.311c.022.445.236 1.535 1.706 2.119l2.52.997c.478.189 1.013.286 1.588.286.091 0 .178-.012.268-.016-.034.044-.076.078-.107.125-.47.702-.493 1.655-.068 2.68a.823.823 0 0 0 .02.047c.745 1.651 1.573 3.515 1.674 3.774A1.697 1.697 0 0 0 9.17 24.41c1.064 0 1.38-.513 3.12-3.345.135-.208.436-.69.487-1.305l.558.225 2.792 1.137c.56.229 1.05.43 1.307.537a1.677 1.677 0 0 0 .87.245c1.27 0 1.574-1.1 1.737-1.69.081-.29.192-.694.312-1.14L24.611 3.43c.321-1.181-.073-1.936-.336-2.281zM10.883 20.175s-1.58 2.572-1.714 2.572c-.004 0-.005-.002-.007-.006-.155-.417-1.716-3.876-1.716-3.876-.288-.693-.236-1.287.259-1.287.108 0 .238.029.39.092l1.212.63c.203.139.424.258.667.354l.061.023.114.058c.937.495 1.234.674.734 1.44zM23.005 2.992L18.75 18.637c-.24.882-.44 1.603-.444 1.603-.004-.002-.008-.019-.008-.021 0-.006-.695-.29-1.543-.637l-2.793-1.138c-.849-.343-2.24-.9-3.093-1.228l-.14-.056-.522-.271c-.517-.397-.563-1.05-.043-1.604l8.642-9.254c.347-.37.478-.561.403-.561-.06 0-.252.123-.573.375L7.701 14.47c-.477.372-1.202.58-1.883.58-.349 0-.688-.055-.976-.17l-2.518-.995c-.851-.337-.884-.96-.073-1.386l19.718-10.34c.227-.118.427-.174.592-.174.424 0 .617.371.444 1.007z"/>
</svg>
